<?xml version="1.0" standalone="no"?>
<!DOCTYPE svg PUBLIC "-//W3C//DTD SVG 20010904//EN"
 "http://www.w3.org/TR/2001/REC-SVG-20010904/DTD/svg10.dtd">
<svg version="1.0" xmlns="http://www.w3.org/2000/svg"
 width="2752.000000pt" height="1536.000000pt" viewBox="0 0 2752.000000 1536.000000"
 preserveAspectRatio="xMidYMid meet">

<g transform="translate(0.000000,1536.000000) scale(0.100000,-0.100000)"
fill="#000000" stroke="none">
<path d="M15490 12165 c-11 -13 -10 -14 4 -9 9 3 16 10 16 15 0 13 -6 11 -20
-6z"/>
<path d="M15455 12150 c-3 -5 -1 -10 4 -10 6 0 11 5 11 10 0 6 -2 10 -4 10 -3
0 -8 -4 -11 -10z"/>
<path d="M15133 11985 c-29 -13 -53 -29 -53 -35 0 -10 80 30 105 52 15 13 4 9
-52 -17z"/>
<path d="M15035 11934 c-28 -14 -62 -42 -40 -32 6 2 25 10 43 17 17 7 32 17
32 22 0 12 0 12 -35 -7z"/>
<path d="M14928 11877 c-21 -11 -38 -24 -38 -28 0 -4 20 4 45 18 42 23 55 34
38 32 -5 0 -25 -10 -45 -22z"/>
<path d="M14854 11834 c-18 -14 -18 -15 4 -4 12 6 22 13 22 15 0 8 -5 6 -26
-11z"/>
<path d="M15110 11739 c0 -5 5 -7 10 -4 6 3 10 8 10 11 0 2 -4 4 -10 4 -5 0
-10 -5 -10 -11z"/>
<path d="M15155 11703 c-44 -24 -69 -41 -55 -37 25 7 99 45 135 70 38 27 -1
11 -80 -33z"/>
<path d="M15289 11728 c-6 -28 -6 -100 0 -163 l8 -80 3 75 c1 41 3 96 4 123 1
26 -2 47 -6 47 -5 0 -8 -1 -9 -2z"/>
<path d="M14595 11700 c-3 -5 -1 -10 4 -10 6 0 11 5 11 10 0 6 -2 10 -4 10 -3
0 -8 -4 -11 -10z"/>
<path d="M15553 11630 c0 -36 2 -50 4 -32 2 17 2 47 0 65 -2 17 -4 3 -4 -33z"/>
<path d="M14480 11640 c-13 -8 -13 -10 2 -10 9 0 20 5 23 10 8 13 -5 13 -25 0z"/>
<path d="M14384 11592 c-195 -102 -293 -156 -290 -160 4 -4 118 47 126 57 5 6
167 92 217 115 13 6 23 14 23 19 0 10 4 11 -76 -31z"/>
<path d="M14880 11560 c-9 -6 -10 -10 -3 -10 6 0 15 5 18 10 8 12 4 12 -15 0z"/>
<path d="M14495 11550 c3 -5 8 -10 11 -10 2 0 4 5 4 10 0 6 -5 10 -11 10 -5 0
-7 -4 -4 -10z"/>
<path d="M14758 11501 c-32 -16 -65 -34 -73 -41 -8 -7 -15 -9 -15 -5 0 5 -8 1
-17 -7 -10 -8 -43 -27 -73 -43 -160 -81 -273 -145 -257 -145 14 0 443 224 492
257 32 21 4 13 -57 -16z"/>
<path d="M15551 11514 c0 -11 3 -14 6 -6 3 7 2 16 -1 19 -3 4 -6 -2 -5 -13z"/>
<path d="M14060 11420 c-9 -6 -10 -10 -3 -10 6 0 15 5 18 10 8 12 4 12 -15 0z"/>
<path d="M13930 11350 c-9 -6 -10 -10 -3 -10 6 0 15 5 18 10 8 12 4 12 -15 0z"/>
<path d="M15287 11313 c-4 -3 -7 -11 -7 -17 0 -6 5 -5 12 2 6 6 9 14 7 17 -3
3 -9 2 -12 -2z"/>
<path d="M13760 11260 c-9 -6 -10 -10 -3 -10 6 0 15 5 18 10 8 12 4 12 -15 0z"/>
<path d="M15286 11248 c-7 -27 1 -438 9 -446 3 -3 6 30 6 74 2 116 -2 388 -6
392 -1 1 -5 -8 -9 -20z"/>
<path d="M13695 11231 c-10 -8 -130 -73 -285 -153 -41 -21 -79 -43 -84 -48
-15 -15 6 -12 29 4 11 7 83 46 160 85 76 40 145 77 152 83 7 6 13 7 13 2 0 -5
4 -4 8 2 4 6 16 16 27 22 15 8 16 11 5 12 -9 0 -20 -4 -25 -9z"/>
<path d="M14085 11140 c-3 -6 1 -7 9 -4 18 7 21 14 7 14 -6 0 -13 -4 -16 -10z"/>
<path d="M13935 11066 c-66 -34 -152 -79 -190 -99 -69 -36 -116 -66 -104 -67
9 0 341 173 402 210 63 39 11 17 -108 -44z"/>
<path d="M13290 11009 c0 -5 5 -7 10 -4 6 3 10 8 10 11 0 2 -4 4 -10 4 -5 0
-10 -5 -10 -11z"/>
<path d="M13108 10913 c7 -3 16 -2 19 1 4 3 -2 6 -13 5 -11 0 -14 -3 -6 -6z"/>
<path d="M13020 10872 c-84 -42 -102 -53 -98 -58 4 -3 156 71 167 82 12 12
-20 0 -69 -24z"/>
<path d="M13580 10879 c-19 -10 -30 -19 -24 -19 13 0 74 30 74 36 0 8 -15 3
-50 -17z"/>
<path d="M14237 9173 c-2 -923 -5 -1705 -5 -1738 -1 -33 1 -302 4 -597 l6
-538 1419 0 1419 0 0 1523 0 1523 -147 79 c-269 143 -436 231 -598 315 -148
77 -362 189 -595 313 -52 28 -113 62 -134 76 -85 56 -319 186 -330 183 -4 -2
-69 30 -145 69 -228 120 -446 235 -536 284 -33 18 -126 67 -207 109 l-148 77
-3 -1678z m401 1140 c48 -25 130 -69 182 -98 52 -29 135 -73 184 -99 145 -77
250 -137 271 -156 11 -10 46 -30 78 -46 37 -18 53 -30 45 -35 -7 -4 -16 -5
-20 -3 -4 3 -8 3 -8 0 0 -3 10 -10 21 -17 17 -8 23 -8 30 2 6 11 12 11 33 0
14 -8 23 -18 20 -23 -3 -4 -10 -6 -15 -3 -5 4 -9 -1 -9 -10 0 -11 5 -15 15
-11 14 5 20 -6 16 -28 -1 -5 5 -4 13 4 13 10 16 10 16 -1 1 -8 7 -3 15 11 13
25 14 25 14 -15 0 -125 4 -195 13 -195 6 0 8 43 6 110 -2 71 1 110 7 110 6 0
46 -18 90 -41 44 -22 124 -63 178 -91 l97 -50 0 -482 c0 -266 -3 -485 -6 -489
-8 -7 -310 149 -347 180 -29 24 -195 111 -347 182 -25 12 -99 50 -165 86 -66
35 -160 85 -208 110 -49 25 -105 56 -125 68 -21 12 -67 38 -104 57 -37 19 -74
40 -82 46 -14 10 -16 71 -16 480 0 258 0 475 0 482 0 20 17 14 108 -35z m882
-493 c0 -5 -7 -10 -16 -10 -8 0 -12 5 -9 10 3 6 10 10 16 10 5 0 9 -4 9 -10z
m704 -349 c61 -32 172 -90 246 -129 74 -39 176 -93 225 -119 l90 -48 3 -492
c2 -523 3 -512 -43 -479 -11 7 -60 35 -110 61 -49 26 -124 66 -165 88 -133 73
-274 147 -327 174 l-53 25 0 489 c0 356 3 489 11 489 6 0 62 -26 123 -59z
m-1536 -352 c75 -40 142 -75 147 -79 6 -4 55 -31 110 -60 202 -106 251 -134
312 -174 63 -41 78 -58 46 -50 -17 5 -18 -28 -17 -583 2 -691 2 -663 13 -663
5 0 8 11 6 25 -1 14 1 25 5 25 10 0 8 34 -3 41 -5 4 -5 15 2 28 7 11 8 21 3
21 -10 0 -8 82 2 99 4 6 2 11 -5 11 -8 0 -8 4 1 15 10 12 10 18 0 30 -6 8 -8
20 -4 27 9 14 12 98 4 98 -3 0 -6 9 -6 20 0 11 4 20 9 20 4 0 5 5 1 12 -11 18
-12 138 -1 138 5 0 5 6 -1 13 -6 7 -7 18 -2 26 4 8 6 20 3 28 -3 7 0 13 7 13
7 0 6 6 -4 16 -20 20 -20 28 -1 20 13 -5 13 -1 3 27 -14 36 -16 66 -5 84 4 6
3 14 -3 18 -6 4 -8 10 -5 15 10 16 12 70 3 70 -5 0 -4 10 3 21 7 14 8 24 1 28
-11 7 -11 191 0 191 4 0 5 9 3 19 -2 14 1 18 11 14 7 -3 11 -9 8 -14 -3 -5 -2
-9 3 -8 24 4 53 -3 67 -16 16 -16 26 -19 26 -7 0 4 -23 20 -50 35 -28 16 -50
33 -50 38 0 6 53 -16 118 -49 64 -33 187 -94 272 -137 85 -43 167 -87 183 -97
l27 -19 0 -930 c0 -878 -1 -929 -17 -929 -62 0 -1343 0 -1362 0 l-24 0 7 408
c3 224 6 425 5 447 -1 22 -4 424 -6 893 -2 594 0 852 7 852 6 0 72 -32 148
-71z m1549 -826 c71 -37 155 -82 188 -100 33 -19 103 -56 155 -83 52 -27 120
-62 150 -79 l55 -29 5 -679 c3 -374 3 -692 0 -709 -4 -21 -11 -29 -25 -28 -11
1 -167 2 -347 2 l-328 2 0 885 c0 572 3 885 10 885 5 0 67 -30 137 -67z"/>
<path d="M15283 9533 c0 -341 7 -519 17 -463 1 8 2 19 1 24 -1 5 -2 92 -2 194
0 141 3 187 13 193 10 7 10 9 1 9 -7 0 -13 8 -13 18 0 10 6 24 13 31 10 11 10
14 0 18 -7 3 -13 9 -13 14 0 6 5 7 10 4 6 -4 8 3 6 17 -3 13 -5 23 -6 23 -1 0
-3 10 -4 22 -2 14 2 20 8 16 6 -4 5 0 -2 9 -11 13 -11 21 -2 39 8 14 8 19 1
15 -6 -4 -11 0 -11 8 0 9 5 16 10 16 6 0 10 7 10 16 0 8 -4 12 -10 9 -5 -3
-10 -1 -10 4 0 6 5 11 10 11 6 0 10 7 10 15 0 8 -4 15 -10 15 -5 0 -10 5 -10
11 0 5 5 7 10 4 6 -3 10 -1 10 4 0 6 -5 11 -10 11 -6 0 -10 15 -8 34 2 28 5
33 17 26 9 -5 16 -16 16 -26 0 -9 6 -18 13 -20 7 -1 8 0 2 3 -5 2 -10 9 -10
14 0 6 5 7 10 4 6 -3 10 1 10 9 0 9 -6 16 -14 16 -8 0 -16 4 -18 9 -1 4 -13
11 -25 15 l-21 7 1 -398z"/>
<path d="M15422 9848 c-16 -16 -15 -25 4 -32 8 -3 12 -2 9 3 -3 5 -1 12 5 16
12 7 13 25 2 25 -4 0 -13 -5 -20 -12z"/>
<path d="M15378 9823 c7 -3 16 -2 19 1 4 3 -2 6 -13 5 -11 0 -14 -3 -6 -6z"/>
<path d="M15335 9791 c-3 -5 -2 -12 3 -15 5 -3 9 1 9 9 0 17 -3 19 -12 6z"/>
<path d="M15340 9666 c0 -4 7 -14 15 -22 8 -9 15 -11 15 -6 0 5 -7 15 -15 22
-8 7 -15 9 -15 6z"/>
<path d="M15346 9605 c-9 -26 -7 -32 5 -12 6 10 9 21 6 23 -2 3 -7 -2 -11 -11z"/>
<path d="M15543 9551 c0 -11 5 -17 9 -15 11 7 10 34 -1 34 -6 0 -9 -9 -8 -19z"/>
<path d="M15553 9470 c0 -25 2 -35 4 -22 2 12 2 32 0 45 -2 12 -4 2 -4 -23z"/>
<path d="M15545 9400 c-3 -5 -1 -10 4 -10 6 0 11 5 11 10 0 6 -2 10 -4 10 -3
0 -8 -4 -11 -10z"/>
<path d="M15545 9350 c3 -5 8 -10 11 -10 2 0 4 5 4 10 0 6 -5 10 -11 10 -5 0
-7 -4 -4 -10z"/>
<path d="M15548 9222 c1 -58 4 -108 7 -110 3 -3 5 42 5 101 0 58 -3 108 -7
110 -5 3 -7 -43 -5 -101z"/>
<path d="M15542 9046 c1 -29 -2 -58 -5 -63 -3 -5 -2 -15 3 -22 4 -8 4 -26 0
-42 -8 -27 -5 -39 12 -39 4 0 8 50 8 110 0 61 -4 110 -9 110 -5 0 -9 -24 -9
-54z"/>
<path d="M15290 9030 c0 -5 5 -10 11 -10 5 0 7 5 4 10 -3 6 -8 10 -11 10 -2 0
-4 -4 -4 -10z"/>
<path d="M15355 8991 c7 -12 96 -53 102 -47 4 3 1 6 -5 6 -7 0 -12 6 -12 13 0
8 -19 18 -45 24 -24 5 -43 7 -40 4z"/>
<path d="M15474 8967 c-4 -6 -4 -9 1 -5 4 4 14 3 22 -4 7 -6 15 -9 18 -7 2 3
-4 10 -15 17 -15 9 -21 9 -26 -1z"/>
<path d="M15477 8943 c-12 -12 -8 -20 18 -31 14 -6 25 -8 25 -3 0 5 -9 11 -21
14 -12 3 -18 10 -14 16 7 12 2 15 -8 4z"/>
<path d="M15490 8641 c14 -11 31 -21 38 -21 15 0 13 14 15 -157 1 -78 5 -145
10 -149 4 -4 7 62 7 147 l0 155 -47 22 c-44 21 -46 21 -23 3z"/>
<path d="M15456 8535 c4 -8 10 -12 15 -9 11 6 2 24 -11 24 -5 0 -7 -7 -4 -15z"/>
<path d="M15505 8460 c-3 -5 -1 -10 4 -10 6 0 11 5 11 10 0 6 -2 10 -4 10 -3
0 -8 -4 -11 -10z"/>
<path d="M15546 8275 c4 -8 8 -15 10 -15 2 0 4 7 4 15 0 8 -4 15 -10 15 -5 0
-7 -7 -4 -15z"/>
<path d="M15549 8213 c-1 -16 -3 -237 -4 -493 -2 -256 -4 -468 -4 -471 -1 -7
-961 -10 -961 -3 0 20 23 42 38 38 14 -5 14 -4 2 4 -8 6 -18 8 -24 5 -5 -4 -7
1 -3 10 3 9 3 19 -2 21 -4 3 -7 21 -6 41 2 19 -1 35 -6 35 -5 0 -9 -30 -9 -67
0 -38 -3 -78 -6 -90 l-6 -23 501 0 501 0 0 510 c0 281 -2 510 -5 510 -3 0 -5
-12 -6 -27z"/>
<path d="M15460 8040 c0 -5 5 -10 11 -10 5 0 7 5 4 10 -3 6 -8 10 -11 10 -2 0
-4 -4 -4 -10z"/>
<path d="M15420 7619 c0 -5 5 -7 10 -4 6 3 10 8 10 11 0 2 -4 4 -10 4 -5 0
-10 -5 -10 -11z"/>
<path d="M15330 7616 c0 -2 7 -7 16 -10 8 -3 12 -2 9 4 -6 10 -25 14 -25 6z"/>
<path d="M14567 7463 c2 -57 2 -57 10 -49 4 4 7 19 8 34 0 25 3 27 45 29 83 5
114 2 129 -10 12 -9 13 -9 7 1 -4 7 -1 12 8 12 9 0 16 -6 16 -12 0 -10 2 -10
8 0 5 7 22 12 38 11 107 -5 403 4 399 12 -4 5 -143 9 -338 9 l-332 0 2 -37z"/>
<path d="M14885 7421 c-6 -11 13 -26 22 -17 4 3 1 6 -6 6 -7 0 -9 5 -6 10 3 6
4 10 1 10 -3 0 -7 -4 -11 -9z"/>
<path d="M14952 7400 c16 -25 34 -26 42 -3 4 10 4 14 1 11 -4 -4 -18 -3 -31 2
-22 9 -23 8 -12 -10z"/>
<path d="M14748 7333 c7 -3 16 -2 19 1 4 3 -2 6 -13 5 -11 0 -14 -3 -6 -6z"/>
<path d="M14671 7277 c-8 -10 -7 -14 2 -14 8 0 14 6 14 14 0 7 -1 13 -2 13 -2
0 -8 -6 -14 -13z"/>
<path d="M13455 10810 c-3 -5 -1 -10 4 -10 6 0 11 5 11 10 0 6 -2 10 -4 10 -3
0 -8 -4 -11 -10z"/>
<path d="M12770 10744 c-121 -64 -173 -96 -120 -76 40 16 243 121 254 132 21
21 -14 7 -134 -56z"/>
<path d="M15291 10774 c0 -11 3 -14 6 -6 3 7 2 16 -1 19 -3 4 -6 -2 -5 -13z"/>
<path d="M15551 10724 c0 -11 3 -14 6 -6 3 7 2 16 -1 19 -3 4 -6 -2 -5 -13z"/>
<path d="M13240 10701 c-30 -15 -86 -45 -125 -65 -38 -21 -106 -56 -150 -78
-91 -47 -90 -46 -83 -53 5 -5 47 16 248 123 130 69 187 102 175 101 -5 0 -35
-13 -65 -28z"/>
<path d="M15290 10644 c0 -49 -1 -136 -1 -194 -2 -132 -2 -130 15 -130 11 0
13 7 7 28 -4 15 -8 106 -10 202 -3 182 -11 250 -11 94z"/>
<path d="M15551 10624 c0 -11 3 -14 6 -6 3 7 2 16 -1 19 -3 4 -6 -2 -5 -13z"/>
<path d="M12494 10595 c-18 -14 -18 -14 4 -8 12 3 22 9 22 14 0 12 -3 11 -26
-6z"/>
<path d="M15552 10565 c0 -16 2 -22 5 -12 2 9 2 23 0 30 -3 6 -5 -1 -5 -18z"/>
<path d="M12410 10549 c0 -5 5 -7 10 -4 6 3 10 8 10 11 0 2 -4 4 -10 4 -5 0
-10 -5 -10 -11z"/>
<path d="M12380 10540 c-8 -5 -12 -11 -9 -14 2 -3 11 -1 19 4 8 5 12 11 9 14
-2 3 -11 1 -19 -4z"/>
<path d="M15552 10510 c0 -14 2 -19 5 -12 2 6 2 18 0 25 -3 6 -5 1 -5 -13z"/>
<path d="M12330 10510 c0 -5 7 -7 15 -4 8 4 15 8 15 10 0 2 -7 4 -15 4 -8 0
-15 -4 -15 -10z"/>
<path d="M12290 10491 c-8 -4 -86 -45 -172 -91 -87 -45 -155 -87 -152 -92 4
-6 9 -6 13 -1 3 5 62 39 131 75 127 66 202 107 209 114 8 7 -14 4 -29 -5z"/>
<path d="M12825 10479 c-16 -11 -23 -18 -15 -15 8 3 23 9 33 12 9 4 17 10 17
15 0 12 -1 12 -35 -12z"/>
<path d="M15552 10410 c0 -14 2 -19 5 -12 2 6 2 18 0 25 -3 6 -5 1 -5 -13z"/>
<path d="M12660 10395 c-14 -8 -20 -14 -15 -14 6 0 21 6 35 14 14 8 21 14 15
14 -5 0 -21 -6 -35 -14z"/>
<path d="M12485 10307 c-165 -85 -239 -127 -247 -142 -11 -19 -17 -465 -6
-465 5 0 8 97 8 228 l-2 227 59 31 c171 92 222 120 272 150 86 52 49 39 -84
-29z"/>
<path d="M15330 10310 c0 -5 5 -10 11 -10 5 0 7 5 4 10 -3 6 -8 10 -11 10 -2
0 -4 -4 -4 -10z"/>
<path d="M11962 10270 c0 -14 2 -19 5 -12 2 6 2 18 0 25 -3 6 -5 1 -5 -13z"/>
<path d="M11962 10210 c0 -14 2 -19 5 -12 2 6 2 18 0 25 -3 6 -5 1 -5 -13z"/>
<path d="M13130 10138 c-133 -69 -422 -223 -490 -261 -109 -61 -368 -191 -385
-193 -12 -1 -61 -25 -110 -53 -50 -29 -111 -62 -137 -74 -28 -13 -50 -30 -53
-42 -7 -29 -13 -116 -14 -221 l-1 -91 -47 -21 c-83 -36 -207 -108 -212 -123
-3 -11 -1 -11 10 -3 29 24 252 133 261 128 4 -3 8 -171 8 -373 0 -338 -1 -369
-17 -383 -10 -8 -57 -37 -105 -64 -49 -27 -88 -52 -88 -55 0 -8 150 69 173 89
16 14 17 10 17 -66 0 -44 5 -84 10 -87 6 -4 10 -187 10 -516 l0 -509 509 2
c478 3 510 2 520 -15 15 -23 13 -607 -1 -625 -8 -9 -7 -11 5 -6 9 3 18 13 21
22 3 10 4 135 2 280 -1 145 1 265 6 268 5 3 4 12 -3 20 -21 26 3 33 123 36
l118 3 -1 -431 c0 -237 -4 -435 -7 -440 -5 -7 -475 -10 -1399 -10 l-1393 1 0
1192 c0 945 3 1192 12 1196 8 4 9 6 2 6 -6 1 -17 -5 -23 -12 -8 -10 -10 -344
-8 -1206 l2 -1193 1412 -1 1413 -2 0 446 c0 347 3 449 13 457 9 8 12 48 12
141 l-1 131 36 1 c19 0 80 0 135 -1 55 -1 96 2 93 6 -4 4 -64 8 -134 10 -70 2
-131 7 -135 11 -5 5 -9 609 -9 1343 0 734 -4 1340 -8 1347 -5 8 -49 -10 -142
-59z m130 12 c0 -5 -4 -10 -10 -10 -5 0 -10 5 -10 10 0 6 5 10 10 10 6 0 10
-4 10 -10z m-270 -793 l0 -372 -113 -58 c-126 -66 -362 -192 -512 -275 -55
-30 -107 -55 -115 -56 -16 -1 -235 -111 -257 -128 -9 -8 -13 -6 -13 4 0 8 17
22 38 33 25 12 32 19 22 23 -8 2 -23 9 -34 14 -12 7 -16 7 -12 0 3 -6 3 -18
-1 -29 -11 -25 -19 185 -15 399 3 158 5 176 19 171 11 -4 14 -3 9 5 -4 7 -3
12 3 12 5 0 13 -4 16 -10 11 -17 25 -11 25 11 0 16 -4 19 -20 14 -15 -5 -20
-2 -20 13 0 11 7 22 14 25 10 4 13 1 10 -7 -7 -18 46 -12 57 6 6 9 9 7 9 -8 0
-28 -9 -35 -31 -23 -15 7 -17 6 -13 -6 3 -8 10 -12 15 -9 5 3 10 -3 10 -13 1
-17 2 -17 6 0 2 9 9 14 15 11 7 -4 8 -2 4 4 -4 7 -2 12 4 12 6 0 13 -8 17 -17
11 -32 35 -54 48 -43 7 6 17 3 28 -11 17 -19 16 -20 -17 -17 -19 1 -32 6 -30
10 7 11 -8 10 -26 -2 -9 -6 -11 -13 -5 -17 6 -5 10 -14 10 -22 0 -13 15 -19
59 -24 11 -1 21 -8 24 -16 3 -8 1 -11 -4 -8 -5 3 -10 -6 -10 -19 -1 -13 2 -21
7 -18 5 3 9 1 9 -5 0 -5 -5 -11 -11 -13 -8 -3 -7 -8 2 -18 8 -9 14 -36 14 -63
0 -27 3 -54 7 -60 8 -13 9 25 10 341 1 171 -5 233 -19 195 -3 -7 -11 -13 -19
-13 -8 0 -29 -8 -47 -17 -18 -9 -36 -17 -42 -18 -5 0 -9 -9 -8 -20 1 -11 0
-14 -3 -7 -6 13 -30 16 -36 4 -1 -4 -19 -18 -39 -30 -28 -17 -36 -28 -37 -53
0 -17 -4 -34 -7 -38 -4 -3 -5 16 -3 43 3 45 6 50 43 70 148 80 202 111 220
126 11 9 106 62 210 117 388 205 473 251 499 269 11 7 23 11 28 8 4 -3 8 -173
8 -377z m-782 -101 c-10 -7 -15 -16 -11 -19 3 -4 1 -7 -5 -7 -18 0 -14 18 6
29 24 15 30 13 10 -3z m-28 -126 c0 -5 -2 -10 -4 -10 -3 0 -8 5 -11 10 -3 6
-1 10 4 10 6 0 11 -4 11 -10z m19 -27 c-8 -10 -9 -14 -2 -10 6 4 14 4 17 -1 2
-4 -11 -9 -31 -10 l-36 -3 24 20 c29 25 46 27 28 4z m-2 -90 c-9 -8 -47 -11
-47 -4 0 5 11 9 25 9 14 0 24 -2 22 -5z m790 -920 c-3 -384 -5 -733 -5 -775
-1 -58 -4 -78 -14 -78 -10 0 -13 18 -12 71 1 40 -1 80 -3 90 -7 26 -23 14 -18
-13 3 -12 -3 -27 -13 -35 -9 -8 -11 -12 -4 -8 22 11 24 -23 3 -46 -12 -13 -21
-28 -21 -33 0 -6 5 -3 11 7 14 24 31 21 27 -5 -3 -22 -8 -23 -83 -24 -44 -1
-88 3 -99 8 -12 7 -16 7 -12 0 7 -12 -553 -11 -571 1 -7 5 -13 4 -13 -1 0 -6
-40 -9 -91 -8 l-91 1 0 300 c0 165 1 365 1 445 1 80 0 171 -2 202 l-2 56 123
64 c68 35 133 73 145 85 12 13 25 23 30 23 4 0 24 10 45 23 20 13 105 59 187
102 83 43 184 96 225 118 128 66 205 109 215 118 5 5 17 9 28 9 18 0 18 -21
14 -697z m-707 427 c0 -33 -4 -60 -8 -60 -5 0 -8 27 -8 60 1 33 4 60 9 60 4 0
7 -27 7 -60z m70 -24 c0 -3 -4 -8 -10 -11 -5 -3 -10 -1 -10 4 0 6 5 11 10 11
6 0 10 -2 10 -4z m904 -964 c3 -5 -1 -9 -9 -9 -8 0 -12 4 -9 9 3 4 7 8 9 8 2
0 6 -4 9 -8z"/>
<path d="M11997 9049 c-4 -13 -3 -27 2 -32 9 -9 41 1 41 15 0 5 -5 6 -10 3 -6
-3 -14 4 -18 16 l-9 23 -6 -25z"/>
<path d="M12060 9026 c0 -15 4 -25 9 -22 10 7 9 31 -2 42 -4 4 -7 -5 -7 -20z"/>
<path d="M12100 9003 c0 -6 8 -17 18 -24 16 -13 16 -13 2 6 -8 11 -16 22 -17
24 -2 2 -3 0 -3 -6z"/>
<path d="M12145 8940 c-3 -6 1 -7 9 -4 18 7 21 14 7 14 -6 0 -13 -4 -16 -10z"/>
<path d="M12225 8696 c0 -19 3 -37 7 -41 4 -4 7 11 6 34 0 23 -3 41 -7 41 -4
0 -7 -15 -6 -34z"/>
<path d="M12220 8624 c0 -8 5 -12 10 -9 6 3 10 10 10 16 0 5 -4 9 -10 9 -5 0
-10 -7 -10 -16z"/>
<path d="M12127 8583 c-4 -3 -7 -11 -7 -17 0 -6 5 -5 12 2 6 6 9 14 7 17 -3 3
-9 2 -12 -2z"/>
<path d="M12226 8362 c-3 -5 -40 -26 -83 -47 -43 -22 -79 -43 -81 -47 -2 -4
-10 -8 -18 -8 -8 0 -17 -7 -20 -15 -4 -8 -10 -13 -14 -10 -4 3 -10 -1 -13 -9
-3 -8 1 -17 9 -20 8 -3 13 -2 10 2 -2 4 1 14 7 22 15 19 67 43 67 31 0 -10 51
-8 71 4 8 4 -2 -9 -21 -30 -24 -26 -29 -36 -16 -31 12 4 23 0 32 -11 12 -17
13 -17 10 3 -3 13 1 21 9 21 8 0 12 -4 9 -9 -3 -4 -1 -8 3 -8 13 0 14 -42 1
-58 -10 -11 -8 -13 8 -10 14 2 20 -4 22 -21 3 -16 0 -21 -8 -16 -9 6 -9 2 -1
-13 6 -11 11 -29 10 -39 -1 -13 -3 -11 -9 7 -7 23 -8 23 -9 3 -1 -12 3 -24 8
-28 5 -3 10 -38 10 -78 1 -39 1 -81 2 -92 1 -11 1 -33 0 -50 -1 -16 -2 -74 -2
-128 0 -55 0 -102 0 -105 -4 -25 4 -52 19 -69 16 -18 31 -20 250 -20 127 -1
232 2 232 7 0 5 -104 9 -232 10 -128 0 -236 4 -241 9 -8 8 -10 221 -4 678 2
159 -2 199 -17 175z"/>
<path d="M12075 8220 c3 -5 8 -10 11 -10 2 0 4 5 4 10 0 6 -5 10 -11 10 -5 0
-7 -4 -4 -10z"/>
<path d="M12126 8135 c4 -8 13 -15 21 -15 13 0 13 3 3 15 -7 8 -16 15 -21 15
-5 0 -6 -7 -3 -15z"/>
<path d="M12036 8123 c-11 -11 -6 -23 9 -23 8 0 15 4 15 9 0 13 -16 22 -24 14z"/>
<path d="M12100 7918 c0 -4 7 -8 15 -8 8 0 15 4 15 8 0 5 -7 9 -15 9 -8 0 -15
-4 -15 -9z"/>
<path d="M12017 7593 c-4 -3 -7 -11 -7 -17 0 -6 5 -5 12 2 6 6 9 14 7 17 -3 3
-9 2 -12 -2z"/>
<path d="M12730 7489 c0 -5 29 -9 65 -8 36 1 65 5 65 10 0 5 -29 8 -65 8 -36
-1 -65 -5 -65 -10z"/>
<path d="M12870 7490 c0 -5 5 -10 10 -10 6 0 10 5 10 10 0 6 -4 10 -10 10 -5
0 -10 -4 -10 -10z"/>
<path d="M12900 7489 c0 -6 7 -9 15 -6 8 4 17 2 20 -4 7 -11 25 -3 25 12 0 5
-13 9 -30 9 -16 0 -30 -5 -30 -11z"/>
<path d="M12295 7431 c-3 -5 -1 -12 5 -16 5 -3 10 1 10 9 0 18 -6 21 -15 7z"/>
<path d="M12428 7433 c7 -3 16 -2 19 1 4 3 -2 6 -13 5 -11 0 -14 -3 -6 -6z"/>
<path d="M12415 7410 c3 -5 11 -10 16 -10 6 0 7 5 4 10 -3 6 -11 10 -16 10 -6
0 -7 -4 -4 -10z"/>
<path d="M12886 7381 c-4 -5 3 -7 14 -4 23 6 26 13 6 13 -8 0 -17 -4 -20 -9z"/>
<path d="M12050 7291 c0 -6 4 -12 8 -15 5 -3 9 1 9 9 0 8 -4 15 -9 15 -4 0 -8
-4 -8 -9z"/>
<path d="M11960 9862 c0 -184 4 -292 10 -292 11 0 9 564 -3 576 -4 4 -7 -124
-7 -284z"/>
<path d="M11793 9426 c-22 -10 -31 -26 -15 -26 10 1 46 29 41 33 -2 2 -14 -2
-26 -7z"/>
<path d="M11730 9390 c0 -5 4 -10 9 -10 6 0 13 5 16 10 3 6 -1 10 -9 10 -9 0
-16 -4 -16 -10z"/>
<path d="M11695 9370 c-3 -5 -2 -10 4 -10 5 0 13 5 16 10 3 6 2 10 -4 10 -5 0
-13 -4 -16 -10z"/>
<path d="M11628 9337 c-21 -11 -38 -24 -38 -29 0 -10 76 27 85 42 9 15 -5 11
-47 -13z"/>
<path d="M11545 9292 c-16 -10 -32 -18 -34 -19 -2 -2 -2 -5 1 -8 7 -7 68 27
68 38 0 8 2 9 -35 -11z"/>
<path d="M11485 9260 c-3 -5 -1 -10 4 -10 6 0 11 5 11 10 0 6 -2 10 -4 10 -3
0 -8 -4 -11 -10z"/>
<path d="M11900 9230 c0 -5 5 -10 11 -10 5 0 7 5 4 10 -3 6 -8 10 -11 10 -2 0
-4 -4 -4 -10z"/>
<path d="M11860 9213 c0 -7 4 -13 9 -13 5 0 11 6 14 13 3 8 -1 14 -9 14 -8 0
-14 -6 -14 -14z"/>
<path d="M11100 9057 c-47 -23 -87 -44 -90 -47 -3 -3 -53 -30 -112 -60 -59
-30 -108 -58 -108 -62 0 -11 28 -10 34 1 3 5 50 31 103 57 54 27 100 52 103
56 3 4 37 23 75 42 77 38 105 56 90 55 -5 0 -48 -19 -95 -42z"/>
<path d="M11625 9038 c-16 -11 -21 -17 -10 -13 11 4 28 10 38 12 9 3 17 9 17
14 0 13 -11 10 -45 -13z"/>
<path d="M11570 8625 c0 -201 3 -365 7 -365 5 0 8 164 9 365 0 201 -3 365 -7
365 -5 0 -8 -164 -9 -365z"/>
<path d="M11290 8861 c-63 -33 -144 -75 -180 -94 -36 -19 -93 -50 -127 -68
-35 -18 -63 -36 -63 -41 0 -8 48 16 325 162 66 35 130 68 142 74 13 6 23 14
23 19 0 10 9 13 -120 -52z"/>
<path d="M10938 8903 c7 -3 16 -2 19 1 4 3 -2 6 -13 5 -11 0 -14 -3 -6 -6z"/>
<path d="M11442 8541 c-1 -206 0 -372 3 -369 7 7 11 614 4 683 -3 33 -6 -108
-7 -314z"/>
<path d="M10728 8857 c-44 -24 -45 -35 -2 -12 16 8 35 15 42 15 6 0 12 5 12
10 0 14 -9 12 -52 -13z"/>
<path d="M10660 8820 c-9 -6 -10 -10 -3 -10 6 0 15 5 18 10 8 12 4 12 -15 0z"/>
<path d="M11140 8820 c0 -5 5 -10 10 -10 6 0 10 5 10 10 0 6 -4 10 -10 10 -5
0 -10 -4 -10 -10z"/>
<path d="M10508 8733 c7 -3 16 -2 19 1 4 3 -2 6 -13 5 -11 0 -14 -3 -6 -6z"/>
<path d="M10885 8640 c-3 -6 1 -7 9 -4 18 7 21 14 7 14 -6 0 -13 -4 -16 -10z"/>
<path d="M10815 8605 c-52 -32 -40 -32 16 0 24 14 40 25 34 25 -5 0 -28 -11
-50 -25z"/>
<path d="M10750 8570 c-9 -6 -10 -10 -3 -10 6 0 15 5 18 10 8 12 4 12 -15 0z"/>
<path d="M10700 8164 c0 -213 4 -363 9 -360 13 9 15 726 1 726 -7 0 -10 -118
-10 -366z"/>
<path d="M11714 8295 c-10 -8 -14 -14 -9 -15 15 0 40 18 34 24 -3 3 -14 -1
-25 -9z"/>
<path d="M11647 8264 c-16 -9 -27 -18 -24 -21 6 -5 67 24 67 32 0 8 -14 5 -43
-11z"/>
<path d="M11870 8226 c-101 -53 -124 -66 -112 -66 16 0 150 69 158 81 7 12 6
12 -46 -15z"/>
<path d="M11690 8130 c-8 -5 -12 -11 -9 -14 2 -3 11 -1 19 4 8 5 12 11 9 14
-2 3 -11 1 -19 -4z"/>
<path d="M11364 8115 c-10 -8 -14 -15 -8 -15 5 0 19 7 30 15 10 8 14 15 8 15
-5 0 -19 -7 -30 -15z"/>
<path d="M11655 8110 c-3 -5 -1 -10 4 -10 6 0 11 5 11 10 0 6 -2 10 -4 10 -3
0 -8 -4 -11 -10z"/>
<path d="M11305 8087 c-11 -8 -76 -43 -145 -79 -162 -85 -190 -101 -190 -111
0 -4 48 17 108 49 118 62 262 145 262 150 0 8 -16 3 -35 -9z"/>
<path d="M11620 8089 c0 -5 5 -7 10 -4 6 3 10 8 10 11 0 2 -4 4 -10 4 -5 0
-10 -5 -10 -11z"/>
<path d="M11570 7983 c-5 -790 -3 -1393 3 -1393 9 0 8 -79 10 748 1 391 -1
712 -5 712 -5 0 -8 -30 -8 -67z"/>
<path d="M11350 7951 c-57 -28 -281 -145 -360 -189 -25 -14 -68 -37 -96 -52
-128 -70 -170 -95 -181 -110 -15 -19 -18 -1010 -3 -1010 6 0 11 188 12 507 l3
506 35 20 c19 11 121 64 225 117 293 151 435 227 435 236 0 8 -15 2 -70 -25z"/>
<path d="M11434 7957 c3 -10 6 -323 6 -694 0 -372 3 -674 6 -671 3 3 6 307 6
675 1 519 -1 673 -11 688 -11 17 -12 17 -7 2z"/>
<path d="M10885 7859 c-27 -15 -70 -38 -95 -50 -25 -12 -40 -23 -34 -26 7 -2
29 6 50 18 22 12 65 35 97 51 31 16 57 31 57 34 0 10 -29 0 -75 -27z"/>
<path d="M13574 7489 c-3 -5 30 -9 72 -9 43 0 74 3 70 7 -10 11 -136 12 -142
2z"/>
<path d="M13775 7490 c-3 -5 1 -10 9 -10 9 0 16 5 16 10 0 6 -4 10 -9 10 -6 0
-13 -4 -16 -10z"/>
<path d="M13815 7490 c-3 -5 1 -10 10 -10 9 0 13 5 10 10 -3 6 -8 10 -10 10
-2 0 -7 -4 -10 -10z"/>
<path d="M13897 7488 c-10 -6 54 -8 298 -8 3 0 4 3 3 8 -4 9 -286 9 -301 0z"/>
<path d="M13738 7483 c7 -3 16 -2 19 1 4 3 -2 6 -13 5 -11 0 -14 -3 -6 -6z"/>
<path d="M13858 7483 c7 -3 16 -2 19 1 4 3 -2 6 -13 5 -11 0 -14 -3 -6 -6z"/>
<path d="M13310 7230 c0 -5 5 -10 10 -10 6 0 10 5 10 10 0 6 -4 10 -10 10 -5
0 -10 -4 -10 -10z"/>
<path d="M13340 7230 c0 -5 7 -10 15 -10 8 0 15 5 15 10 0 6 -7 10 -15 10 -8
0 -15 -4 -15 -10z"/>
<path d="M13390 7229 c0 -5 11 -8 25 -7 14 1 25 5 25 9 0 4 -11 7 -25 7 -14 0
-25 -4 -25 -9z"/>
<path d="M13454 7233 c11 -11 66 -12 66 -2 0 5 -16 9 -37 9 -20 0 -33 -3 -29
-7z"/>
<path d="M13530 7230 c0 -5 5 -10 10 -10 6 0 10 5 10 10 0 6 -4 10 -10 10 -5
0 -10 -4 -10 -10z"/>
<path d="M13560 7232 c0 -5 7 -9 15 -9 8 0 15 4 15 9 0 4 -7 8 -15 8 -8 0 -15
-4 -15 -8z"/>
<path d="M13600 7233 c0 -5 20 -8 45 -9 25 0 45 3 45 8 0 4 -20 8 -45 8 -25 0
-45 -3 -45 -7z"/>
<path d="M13704 7233 c11 -11 76 -12 76 -1 0 4 -19 8 -42 8 -23 0 -38 -3 -34
-7z"/>
<path d="M13790 7231 c0 -5 14 -9 30 -9 17 1 30 5 30 10 0 4 -13 8 -30 8 -16
0 -30 -4 -30 -9z"/>
<path d="M13860 7232 c0 -4 32 -8 70 -9 39 -1 70 2 70 8 0 5 -31 9 -70 9 -38
0 -70 -4 -70 -8z"/>
<path d="M14010 7232 c0 -5 27 -8 60 -8 33 0 60 3 60 8 0 4 -27 8 -60 8 -33 0
-60 -4 -60 -8z"/>
<path d="M14140 7232 c0 -5 7 -9 15 -9 8 0 15 4 15 9 0 4 -7 8 -15 8 -8 0 -15
-4 -15 -8z"/>
<path d="M14180 7230 c0 -5 5 -10 11 -10 5 0 7 5 4 10 -3 6 -8 10 -11 10 -2 0
-4 -4 -4 -10z"/>
<path d="M10740 6570 c19 -12 670 -11 670 1 0 5 -145 9 -342 9 -215 0 -338 -4
-328 -10z"/>
<path d="M11602 6569 c11 -6 95 -9 205 -9 104 1 407 1 676 0 332 -1 487 2 487
10 0 7 -218 10 -692 10 -473 -1 -687 -4 -676 -11z"/>
<path d="M11140 6540 c0 -5 5 -10 11 -10 5 0 7 5 4 10 -3 6 -8 10 -11 10 -2 0
-4 -4 -4 -10z"/>
<path d="M6072 5169 c-109 -13 -187 -36 -287 -85 -193 -93 -317 -237 -391
-449 -27 -75 -28 -91 -29 -240 0 -184 12 -241 76 -370 96 -196 288 -346 519
-407 120 -32 348 -31 465 1 93 25 184 66 252 112 56 39 153 128 153 141 0 12
-9 21 -128 129 l-95 87 -63 -54 c-108 -91 -203 -127 -334 -127 -203 0 -360 90
-435 250 -140 295 20 647 319 702 178 33 334 -14 473 -142 17 -16 36 -28 42
-26 5 2 58 51 116 109 l107 105 -69 65 c-114 108 -276 180 -455 199 -108 12
-131 12 -236 0z"/>
<path d="M13991 5169 c-286 -35 -530 -198 -645 -433 -57 -117 -79 -213 -80
-351 -1 -223 66 -387 219 -541 93 -94 164 -142 277 -187 244 -98 545 -84 767
34 255 137 400 365 417 659 18 298 -150 591 -417 726 -167 84 -353 116 -538
93z m208 -309 c248 -41 412 -284 373 -553 -42 -294 -307 -465 -600 -388 -92
24 -147 57 -210 126 -178 194 -173 506 10 686 116 114 256 156 427 129z"/>
<path d="M19181 5169 c-107 -10 -204 -40 -311 -95 -155 -80 -266 -193 -340
-349 -57 -119 -74 -198 -74 -345 0 -108 4 -137 28 -215 70 -229 194 -374 411
-480 122 -59 205 -81 345 -91 297 -20 570 99 745 326 113 147 167 348 145 541
-52 465 -443 756 -949 708z m282 -329 c174 -66 295 -235 305 -425 12 -249
-126 -441 -361 -502 -114 -29 -283 -1 -380 63 -93 61 -172 179 -196 292 -14
65 -14 182 0 241 38 168 195 322 355 351 80 15 212 5 277 -20z"/>
<path d="M6940 5005 l0 -145 230 -1 c270 -2 248 0 260 -19 6 -9 10 -250 10
-615 l-1 -600 177 0 177 0 1 615 1 615 244 5 245 5 -2 80 c0 44 -1 108 -2 143
l0 62 -670 0 -670 0 0 -145z"/>
<path d="M8500 4385 l0 -765 610 0 610 0 0 145 0 145 -430 0 -430 0 0 170 0
170 303 1 c166 0 330 0 365 -1 l62 -1 0 145 0 146 -362 2 -363 3 -3 157 -3
158 413 2 413 3 3 143 3 142 -596 0 -595 0 0 -765z"/>
<path d="M9990 5148 c0 -2 -1 -346 -3 -766 l-2 -762 178 0 177 0 0 88 c1 48 0
180 0 293 0 113 2 213 6 222 5 15 23 17 124 17 l117 0 199 -310 c110 -170 204
-311 209 -312 6 -2 100 -1 211 2 l201 5 -129 195 c-231 350 -381 584 -381 595
0 9 140 217 393 585 48 70 90 132 94 139 5 8 -44 11 -188 11 l-195 0 -202
-305 -202 -305 -122 0 c-121 0 -123 0 -127 24 -3 13 -5 147 -6 297 0 151 -1
277 -1 282 -1 6 -351 11 -351 5z"/>
<path d="M11825 5138 c-2 -7 -6 -101 -10 -208 -26 -815 -76 -1000 -268 -1000
l-44 0 -6 -97 c-4 -54 -7 -124 -7 -156 0 -53 2 -58 26 -68 83 -31 226 -19 317
27 140 72 230 258 266 555 14 109 30 391 32 542 1 111 2 117 23 122 11 3 128
4 259 3 l239 -3 1 -617 2 -618 178 0 177 0 0 765 0 765 -590 0 c-464 0 -591
-3 -595 -12z"/>
<path d="M15194 5136 c-3 -7 -4 -350 -2 -762 l3 -749 177 -3 178 -2 2 617 3
618 340 0 340 0 3 -617 2 -617 176 -3 c97 -2 178 -1 180 1 2 2 4 348 4 768 l0
763 -700 0 c-580 0 -702 -2 -706 -14z"/>
<path d="M16950 4386 l0 -766 180 0 180 0 0 215 0 215 173 0 c94 0 204 3 242
6 287 22 473 148 547 370 47 143 23 344 -56 469 -67 104 -148 162 -306 217
l-95 33 -432 3 -433 3 0 -765z m838 445 c95 -43 143 -119 143 -228 0 -120 -62
-204 -177 -239 -34 -10 -102 -14 -246 -14 l-198 0 0 256 0 256 213 -4 c197 -3
216 -5 265 -27z"/>
<path d="M20380 4385 l0 -765 176 0 177 0 -5 440 c-3 258 -2 440 4 438 5 -2
60 -86 123 -188 62 -102 157 -255 211 -340 53 -85 103 -165 111 -177 12 -21
21 -23 101 -23 l88 0 94 158 c52 86 132 222 178 301 45 79 104 176 130 215
l47 71 3 -448 2 -447 171 2 170 3 1 185 c0 102 0 445 -1 763 l-1 577 -158 0
-158 0 -273 -455 c-150 -249 -279 -462 -285 -471 -11 -15 -15 -13 -33 17 -108
179 -308 505 -420 684 l-138 220 -158 3 -157 3 0 -766z"/>
</g>
</svg>
